<svg width="80" height="80" viewBox="0 0 80 80" fill="none" xmlns="http://www.w3.org/2000/svg">
  <!-- Background -->
  <circle cx="40" cy="40" r="35" fill="url(#algorithmGrad)" opacity="0.1"/>
  
  <!-- Neural Network Nodes -->
  <circle cx="20" cy="25" r="4" fill="url(#algorithmGrad)"/>
  <circle cx="20" cy="40" r="4" fill="url(#algorithmGrad)"/>
  <circle cx="20" cy="55" r="4" fill="url(#algorithmGrad)"/>
  
  <circle cx="40" cy="20" r="4" fill="url(#algorithmGrad)"/>
  <circle cx="40" cy="35" r="4" fill="url(#algorithmGrad)"/>
  <circle cx="40" cy="50" r="4" fill="url(#algorithmGrad)"/>
  <circle cx="40" cy="65" r="4" fill="url(#algorithmGrad)"/>
  
  <circle cx="60" cy="30" r="4" fill="url(#algorithmGrad)"/>
  <circle cx="60" cy="50" r="4" fill="url(#algorithmGrad)"/>
  
  <!-- Connections -->
  <line x1="24" y1="25" x2="36" y2="20" stroke="url(#algorithmGrad)" stroke-width="2" opacity="0.6"/>
  <line x1="24" y1="25" x2="36" y2="35" stroke="url(#algorithmGrad)" stroke-width="2" opacity="0.6"/>
  <line x1="24" y1="40" x2="36" y2="35" stroke="url(#algorithmGrad)" stroke-width="2" opacity="0.6"/>
  <line x1="24" y1="40" x2="36" y2="50" stroke="url(#algorithmGrad)" stroke-width="2" opacity="0.6"/>
  <line x1="24" y1="55" x2="36" y2="50" stroke="url(#algorithmGrad)" stroke-width="2" opacity="0.6"/>
  <line x1="24" y1="55" x2="36" y2="65" stroke="url(#algorithmGrad)" stroke-width="2" opacity="0.6"/>
  
  <line x1="44" y1="20" x2="56" y2="30" stroke="url(#algorithmGrad)" stroke-width="2" opacity="0.6"/>
  <line x1="44" y1="35" x2="56" y2="30" stroke="url(#algorithmGrad)" stroke-width="2" opacity="0.6"/>
  <line x1="44" y1="50" x2="56" y2="50" stroke="url(#algorithmGrad)" stroke-width="2" opacity="0.6"/>
  <line x1="44" y1="65" x2="56" y2="50" stroke="url(#algorithmGrad)" stroke-width="2" opacity="0.6"/>
  
  <!-- Binary code -->
  <text x="15" y="12" font-family="monospace" font-size="6" fill="#43E97B" opacity="0.7">101</text>
  <text x="35" y="12" font-family="monospace" font-size="6" fill="#43E97B" opacity="0.7">010</text>
  <text x="55" y="12" font-family="monospace" font-size="6" fill="#43E97B" opacity="0.7">110</text>
  
  <defs>
    <linearGradient id="algorithmGrad" x1="0%" y1="0%" x2="100%" y2="100%">
      <stop offset="0%" style="stop-color:#43e97b"/>
      <stop offset="100%" style="stop-color:#38f9d7"/>
    </linearGradient>
  </defs>
</svg>